<mxfile host="app.diagrams.net" modified="2023-05-17T08:12:40.661Z" agent="Mozilla/5.0 (Windows NT 10.0; Win64; x64) AppleWebKit/537.36 (KHTML, like Gecko) Chrome/113.0.0.0 Safari/537.36" etag="50Vr_1D9xsUBXEibjsfU" version="21.3.2" type="device">
  <diagram name="페이지-1" id="Eug13Cjw1KqkLXdhCmiU">
    <mxGraphModel dx="1434" dy="764" grid="0" gridSize="10" guides="1" tooltips="1" connect="1" arrows="1" fold="1" page="1" pageScale="1" pageWidth="10000" pageHeight="5000" math="0" shadow="0">
      <root>
        <mxCell id="0" />
        <mxCell id="1" parent="0" />
        <mxCell id="bUmHoxnxDPU0LVhCzM5T-1" value="가평 문화관광" style="rounded=1;whiteSpace=wrap;html=1;fontSize=18;fontStyle=1;strokeWidth=4;glass=0;shadow=1;" parent="1" vertex="1">
          <mxGeometry x="1027" y="595" width="165" height="61" as="geometry" />
        </mxCell>
        <mxCell id="bUmHoxnxDPU0LVhCzM5T-2" value="문화유적" style="ellipse;whiteSpace=wrap;html=1;fontStyle=1;labelBackgroundColor=none;fillColor=#fff2cc;strokeColor=#d6b656;gradientColor=#ffd966;strokeWidth=2;shadow=1;" parent="1" vertex="1">
          <mxGeometry x="1138" y="507" width="106" height="56" as="geometry" />
        </mxCell>
        <mxCell id="bUmHoxnxDPU0LVhCzM5T-3" value="관광지" style="ellipse;whiteSpace=wrap;html=1;fontStyle=1;labelBackgroundColor=none;fillColor=#dae8fc;strokeColor=#6c8ebf;gradientColor=#7ea6e0;strokeWidth=2;shadow=1;" parent="1" vertex="1">
          <mxGeometry x="959" y="519" width="107" height="56" as="geometry" />
        </mxCell>
        <mxCell id="bUmHoxnxDPU0LVhCzM5T-4" value="게시판" style="ellipse;whiteSpace=wrap;html=1;fontStyle=1;labelBackgroundColor=none;fillColor=#d5e8d4;strokeColor=#82b366;gradientColor=#97d077;strokeWidth=2;shadow=1;" parent="1" vertex="1">
          <mxGeometry x="968" y="703" width="105" height="52" as="geometry" />
        </mxCell>
        <mxCell id="bUmHoxnxDPU0LVhCzM5T-5" value="맛집" style="ellipse;whiteSpace=wrap;html=1;fontStyle=1;labelBackgroundColor=none;fillColor=#ffcd28;strokeColor=#d79b00;gradientColor=#ffa500;strokeWidth=2;shadow=1;" parent="1" vertex="1">
          <mxGeometry x="866" y="609" width="102" height="52" as="geometry" />
        </mxCell>
        <mxCell id="bUmHoxnxDPU0LVhCzM5T-6" value="숙박" style="ellipse;whiteSpace=wrap;html=1;fontStyle=1;labelBackgroundColor=none;fillColor=#e6d0de;strokeColor=#996185;gradientColor=#d5739d;strokeWidth=2;shadow=1;" parent="1" vertex="1">
          <mxGeometry x="1138" y="715" width="103" height="51" as="geometry" />
        </mxCell>
        <mxCell id="bUmHoxnxDPU0LVhCzM5T-8" value="산" style="ellipse;whiteSpace=wrap;html=1;fillColor=#dae8fc;strokeColor=#6c8ebf;" parent="1" vertex="1">
          <mxGeometry x="815" y="527" width="81" height="44" as="geometry" />
        </mxCell>
        <mxCell id="bUmHoxnxDPU0LVhCzM5T-9" value="호수" style="ellipse;whiteSpace=wrap;html=1;fillColor=#dae8fc;strokeColor=#6c8ebf;" parent="1" vertex="1">
          <mxGeometry x="846" y="437" width="81" height="44" as="geometry" />
        </mxCell>
        <mxCell id="bUmHoxnxDPU0LVhCzM5T-10" value="체험" style="ellipse;whiteSpace=wrap;html=1;fontStyle=1;labelBackgroundColor=none;fillColor=#f8cecc;strokeColor=#b85450;gradientColor=#ea6b66;strokeWidth=2;shadow=1;" parent="1" vertex="1">
          <mxGeometry x="1241.5" y="631" width="106" height="48" as="geometry" />
        </mxCell>
        <mxCell id="bUmHoxnxDPU0LVhCzM5T-11" value="계곡" style="ellipse;whiteSpace=wrap;html=1;fillColor=#dae8fc;strokeColor=#6c8ebf;" parent="1" vertex="1">
          <mxGeometry x="932" y="454" width="81" height="44" as="geometry" />
        </mxCell>
        <mxCell id="bUmHoxnxDPU0LVhCzM5T-12" value="문화재" style="ellipse;whiteSpace=wrap;html=1;fillColor=#fff2cc;strokeColor=#d6b656;" parent="1" vertex="1">
          <mxGeometry x="1283" y="470" width="81" height="44" as="geometry" />
        </mxCell>
        <mxCell id="bUmHoxnxDPU0LVhCzM5T-13" value="기념비" style="ellipse;whiteSpace=wrap;html=1;fillColor=#fff2cc;strokeColor=#d6b656;" parent="1" vertex="1">
          <mxGeometry x="1314" y="519" width="81" height="44" as="geometry" />
        </mxCell>
        <mxCell id="bUmHoxnxDPU0LVhCzM5T-14" value="인물" style="ellipse;whiteSpace=wrap;html=1;fillColor=#fff2cc;strokeColor=#d6b656;" parent="1" vertex="1">
          <mxGeometry x="1314" y="571" width="81" height="44" as="geometry" />
        </mxCell>
        <mxCell id="bUmHoxnxDPU0LVhCzM5T-16" value="호텔" style="ellipse;whiteSpace=wrap;html=1;fillColor=#e1d5e7;strokeColor=#9673a6;" parent="1" vertex="1">
          <mxGeometry x="1047" y="773" width="81" height="44" as="geometry" />
        </mxCell>
        <mxCell id="bUmHoxnxDPU0LVhCzM5T-17" value="야영장" style="ellipse;whiteSpace=wrap;html=1;fillColor=#e1d5e7;strokeColor=#9673a6;" parent="1" vertex="1">
          <mxGeometry x="1124" y="800" width="81" height="44" as="geometry" />
        </mxCell>
        <mxCell id="bUmHoxnxDPU0LVhCzM5T-18" value="민박" style="ellipse;whiteSpace=wrap;html=1;fillColor=#e1d5e7;strokeColor=#9673a6;" parent="1" vertex="1">
          <mxGeometry x="1211" y="800" width="81" height="44" as="geometry" />
        </mxCell>
        <mxCell id="bUmHoxnxDPU0LVhCzM5T-21" value="국화축제" style="ellipse;whiteSpace=wrap;html=1;" parent="1" vertex="1">
          <mxGeometry x="1304" y="802" width="81" height="44" as="geometry" />
        </mxCell>
        <mxCell id="bUmHoxnxDPU0LVhCzM5T-22" value="군민의날 행사" style="ellipse;whiteSpace=wrap;html=1;" parent="1" vertex="1">
          <mxGeometry x="1490" y="773" width="94" height="44" as="geometry" />
        </mxCell>
        <mxCell id="bUmHoxnxDPU0LVhCzM5T-23" value="비눗방울놀이" style="ellipse;whiteSpace=wrap;html=1;" parent="1" vertex="1">
          <mxGeometry x="1563" y="674" width="87.5" height="43" as="geometry" />
        </mxCell>
        <mxCell id="bUmHoxnxDPU0LVhCzM5T-24" value="축제" style="ellipse;whiteSpace=wrap;html=1;fillColor=#f8cecc;strokeColor=#b85450;" parent="1" vertex="1">
          <mxGeometry x="1307" y="733" width="81" height="44" as="geometry" />
        </mxCell>
        <mxCell id="bUmHoxnxDPU0LVhCzM5T-25" value="행사" style="ellipse;whiteSpace=wrap;html=1;fillColor=#f8cecc;strokeColor=#b85450;" parent="1" vertex="1">
          <mxGeometry x="1388" y="710" width="81" height="44" as="geometry" />
        </mxCell>
        <mxCell id="bUmHoxnxDPU0LVhCzM5T-26" value="놀거리" style="ellipse;whiteSpace=wrap;html=1;fillColor=#f8cecc;strokeColor=#b85450;" parent="1" vertex="1">
          <mxGeometry x="1422" y="657" width="81" height="44" as="geometry" />
        </mxCell>
        <mxCell id="bUmHoxnxDPU0LVhCzM5T-27" value="레일바이크" style="ellipse;whiteSpace=wrap;html=1;" parent="1" vertex="1">
          <mxGeometry x="1525" y="723" width="87.5" height="43" as="geometry" />
        </mxCell>
        <mxCell id="bUmHoxnxDPU0LVhCzM5T-28" value="꽃축제" style="ellipse;whiteSpace=wrap;html=1;" parent="1" vertex="1">
          <mxGeometry x="1393" y="782" width="81" height="44" as="geometry" />
        </mxCell>
        <mxCell id="bUmHoxnxDPU0LVhCzM5T-29" value="프랑스마을" style="ellipse;whiteSpace=wrap;html=1;" parent="1" vertex="1">
          <mxGeometry x="1534" y="625" width="87.5" height="45" as="geometry" />
        </mxCell>
        <mxCell id="bUmHoxnxDPU0LVhCzM5T-30" value="명지산" style="ellipse;whiteSpace=wrap;html=1;" parent="1" vertex="1">
          <mxGeometry x="644" y="498" width="81" height="44" as="geometry" />
        </mxCell>
        <mxCell id="bUmHoxnxDPU0LVhCzM5T-31" value="연인산" style="ellipse;whiteSpace=wrap;html=1;" parent="1" vertex="1">
          <mxGeometry x="675" y="444" width="81" height="44" as="geometry" />
        </mxCell>
        <mxCell id="bUmHoxnxDPU0LVhCzM5T-32" value="유명산" style="ellipse;whiteSpace=wrap;html=1;" parent="1" vertex="1">
          <mxGeometry x="761" y="467" width="81" height="44" as="geometry" />
        </mxCell>
        <mxCell id="bUmHoxnxDPU0LVhCzM5T-33" value="운악산" style="ellipse;whiteSpace=wrap;html=1;" parent="1" vertex="1">
          <mxGeometry x="675" y="553" width="81" height="44" as="geometry" />
        </mxCell>
        <mxCell id="bUmHoxnxDPU0LVhCzM5T-34" value="녹수계곡" style="ellipse;whiteSpace=wrap;html=1;" parent="1" vertex="1">
          <mxGeometry x="1078" y="397" width="81" height="44" as="geometry" />
        </mxCell>
        <mxCell id="bUmHoxnxDPU0LVhCzM5T-35" value="조종천계곡" style="ellipse;whiteSpace=wrap;html=1;" parent="1" vertex="1">
          <mxGeometry x="1057" y="456" width="81" height="44" as="geometry" />
        </mxCell>
        <mxCell id="bUmHoxnxDPU0LVhCzM5T-36" value="명지계곡" style="ellipse;whiteSpace=wrap;html=1;" parent="1" vertex="1">
          <mxGeometry x="988" y="382" width="81" height="44" as="geometry" />
        </mxCell>
        <mxCell id="bUmHoxnxDPU0LVhCzM5T-37" value="호명호수" style="ellipse;whiteSpace=wrap;html=1;" parent="1" vertex="1">
          <mxGeometry x="795" y="380" width="81" height="44" as="geometry" />
        </mxCell>
        <mxCell id="bUmHoxnxDPU0LVhCzM5T-38" value="청평호반" style="ellipse;whiteSpace=wrap;html=1;" parent="1" vertex="1">
          <mxGeometry x="885" y="376" width="81" height="44" as="geometry" />
        </mxCell>
        <mxCell id="bUmHoxnxDPU0LVhCzM5T-39" value="유몽인선생 묘역" style="ellipse;whiteSpace=wrap;html=1;" parent="1" vertex="1">
          <mxGeometry x="1170" y="454" width="96" height="34" as="geometry" />
        </mxCell>
        <mxCell id="bUmHoxnxDPU0LVhCzM5T-40" value="현등사독성도" style="ellipse;whiteSpace=wrap;html=1;" parent="1" vertex="1">
          <mxGeometry x="1215" y="412" width="85" height="33" as="geometry" />
        </mxCell>
        <mxCell id="bUmHoxnxDPU0LVhCzM5T-41" value="대원사" style="ellipse;whiteSpace=wrap;html=1;" parent="1" vertex="1">
          <mxGeometry x="1393" y="401" width="67" height="33" as="geometry" />
        </mxCell>
        <mxCell id="bUmHoxnxDPU0LVhCzM5T-43" value="조종암" style="ellipse;whiteSpace=wrap;html=1;" parent="1" vertex="1">
          <mxGeometry x="1311" y="401" width="71" height="36" as="geometry" />
        </mxCell>
        <mxCell id="bUmHoxnxDPU0LVhCzM5T-44" value="현충탑" style="ellipse;whiteSpace=wrap;html=1;" parent="1" vertex="1">
          <mxGeometry x="1258" y="365" width="73" height="33" as="geometry" />
        </mxCell>
        <mxCell id="bUmHoxnxDPU0LVhCzM5T-45" value="캐나다전투기념비" style="ellipse;whiteSpace=wrap;html=1;" parent="1" vertex="1">
          <mxGeometry x="1428.5" y="505" width="108" height="43" as="geometry" />
        </mxCell>
        <mxCell id="bUmHoxnxDPU0LVhCzM5T-46" value="용문산전투전적비" style="ellipse;whiteSpace=wrap;html=1;" parent="1" vertex="1">
          <mxGeometry x="1393" y="454" width="110" height="44" as="geometry" />
        </mxCell>
        <mxCell id="bUmHoxnxDPU0LVhCzM5T-47" value="순국열사&lt;br&gt;조병세" style="ellipse;whiteSpace=wrap;html=1;" parent="1" vertex="1">
          <mxGeometry x="1416" y="551" width="63" height="44" as="geometry" />
        </mxCell>
        <mxCell id="bUmHoxnxDPU0LVhCzM5T-48" value="애국지사&amp;nbsp;&lt;br&gt;장호리" style="ellipse;whiteSpace=wrap;html=1;" parent="1" vertex="1">
          <mxGeometry x="1409" y="603.5" width="65.5" height="44" as="geometry" />
        </mxCell>
        <mxCell id="bUmHoxnxDPU0LVhCzM5T-49" value="어거스트" style="ellipse;whiteSpace=wrap;html=1;" parent="1" vertex="1">
          <mxGeometry x="970" y="793" width="67" height="37" as="geometry" />
        </mxCell>
        <mxCell id="bUmHoxnxDPU0LVhCzM5T-50" value="까사32" style="ellipse;whiteSpace=wrap;html=1;" parent="1" vertex="1">
          <mxGeometry x="1066" y="848" width="70" height="37" as="geometry" />
        </mxCell>
        <mxCell id="bUmHoxnxDPU0LVhCzM5T-51" value="더 스퀘어24" style="ellipse;whiteSpace=wrap;html=1;" parent="1" vertex="1">
          <mxGeometry x="970" y="835" width="81" height="39" as="geometry" />
        </mxCell>
        <mxCell id="bUmHoxnxDPU0LVhCzM5T-52" value="베스트캠핑장" style="ellipse;whiteSpace=wrap;html=1;" parent="1" vertex="1">
          <mxGeometry x="1104" y="900" width="81" height="44" as="geometry" />
        </mxCell>
        <mxCell id="bUmHoxnxDPU0LVhCzM5T-53" value="별드림캠핑장" style="ellipse;whiteSpace=wrap;html=1;" parent="1" vertex="1">
          <mxGeometry x="1170" y="865" width="81" height="44" as="geometry" />
        </mxCell>
        <mxCell id="bUmHoxnxDPU0LVhCzM5T-54" value="굿데이리조트" style="ellipse;whiteSpace=wrap;html=1;" parent="1" vertex="1">
          <mxGeometry x="1229" y="906" width="89" height="44" as="geometry" />
        </mxCell>
        <mxCell id="bUmHoxnxDPU0LVhCzM5T-55" value="가평로제펜션" style="ellipse;whiteSpace=wrap;html=1;" parent="1" vertex="1">
          <mxGeometry x="1275" y="862" width="89" height="44" as="geometry" />
        </mxCell>
        <mxCell id="bUmHoxnxDPU0LVhCzM5T-56" value="100대 맛집" style="ellipse;whiteSpace=wrap;html=1;fillColor=#ffe6cc;strokeColor=#d79b00;" parent="1" vertex="1">
          <mxGeometry x="723" y="613" width="81" height="44" as="geometry" />
        </mxCell>
        <mxCell id="bUmHoxnxDPU0LVhCzM5T-57" value="일반음식점" style="ellipse;whiteSpace=wrap;html=1;fillColor=#ffe6cc;strokeColor=#d79b00;" parent="1" vertex="1">
          <mxGeometry x="756" y="663" width="81" height="44" as="geometry" />
        </mxCell>
        <mxCell id="bUmHoxnxDPU0LVhCzM5T-58" value="공지사항" style="ellipse;whiteSpace=wrap;html=1;fillColor=#d5e8d4;strokeColor=#82b366;" parent="1" vertex="1">
          <mxGeometry x="804" y="749" width="81" height="44" as="geometry" />
        </mxCell>
        <mxCell id="bUmHoxnxDPU0LVhCzM5T-59" value="Q&amp;amp;A" style="ellipse;whiteSpace=wrap;html=1;fillColor=#d5e8d4;strokeColor=#82b366;" parent="1" vertex="1">
          <mxGeometry x="855" y="695" width="81" height="44" as="geometry" />
        </mxCell>
        <mxCell id="bUmHoxnxDPU0LVhCzM5T-60" value="리뷰" style="ellipse;whiteSpace=wrap;html=1;fillColor=#d5e8d4;strokeColor=#82b366;" parent="1" vertex="1">
          <mxGeometry x="892" y="768" width="81" height="44" as="geometry" />
        </mxCell>
        <mxCell id="rBA8UB2C427OJ4yDH4QD-1" value="" style="endArrow=classic;html=1;rounded=0;exitX=0.5;exitY=0;exitDx=0;exitDy=0;entryX=1;entryY=0.5;entryDx=0;entryDy=0;" edge="1" parent="1" source="bUmHoxnxDPU0LVhCzM5T-12" target="bUmHoxnxDPU0LVhCzM5T-39">
          <mxGeometry width="50" height="50" relative="1" as="geometry">
            <mxPoint x="1105" y="417" as="sourcePoint" />
            <mxPoint x="1155" y="367" as="targetPoint" />
          </mxGeometry>
        </mxCell>
        <mxCell id="rBA8UB2C427OJ4yDH4QD-2" value="" style="endArrow=classic;html=1;rounded=0;exitX=0.5;exitY=0;exitDx=0;exitDy=0;entryX=0.5;entryY=1;entryDx=0;entryDy=0;" edge="1" parent="1" source="bUmHoxnxDPU0LVhCzM5T-12" target="bUmHoxnxDPU0LVhCzM5T-40">
          <mxGeometry width="50" height="50" relative="1" as="geometry">
            <mxPoint x="1105" y="417" as="sourcePoint" />
            <mxPoint x="1155" y="367" as="targetPoint" />
          </mxGeometry>
        </mxCell>
        <mxCell id="rBA8UB2C427OJ4yDH4QD-3" value="" style="endArrow=classic;html=1;rounded=0;exitX=0.5;exitY=0;exitDx=0;exitDy=0;entryX=0.5;entryY=1;entryDx=0;entryDy=0;" edge="1" parent="1" source="bUmHoxnxDPU0LVhCzM5T-12" target="bUmHoxnxDPU0LVhCzM5T-43">
          <mxGeometry width="50" height="50" relative="1" as="geometry">
            <mxPoint x="1105" y="417" as="sourcePoint" />
            <mxPoint x="1155" y="367" as="targetPoint" />
          </mxGeometry>
        </mxCell>
        <mxCell id="rBA8UB2C427OJ4yDH4QD-4" value="" style="endArrow=classic;html=1;rounded=0;exitX=0.5;exitY=0;exitDx=0;exitDy=0;entryX=0.5;entryY=1;entryDx=0;entryDy=0;" edge="1" parent="1" source="bUmHoxnxDPU0LVhCzM5T-12" target="bUmHoxnxDPU0LVhCzM5T-44">
          <mxGeometry width="50" height="50" relative="1" as="geometry">
            <mxPoint x="1105" y="417" as="sourcePoint" />
            <mxPoint x="1155" y="367" as="targetPoint" />
          </mxGeometry>
        </mxCell>
        <mxCell id="rBA8UB2C427OJ4yDH4QD-5" value="" style="endArrow=classic;html=1;rounded=0;exitX=0.5;exitY=0;exitDx=0;exitDy=0;entryX=0.5;entryY=1;entryDx=0;entryDy=0;" edge="1" parent="1" source="bUmHoxnxDPU0LVhCzM5T-12" target="bUmHoxnxDPU0LVhCzM5T-41">
          <mxGeometry width="50" height="50" relative="1" as="geometry">
            <mxPoint x="1105" y="417" as="sourcePoint" />
            <mxPoint x="1155" y="367" as="targetPoint" />
          </mxGeometry>
        </mxCell>
        <mxCell id="rBA8UB2C427OJ4yDH4QD-7" value="" style="endArrow=classic;html=1;rounded=0;exitX=1;exitY=0.5;exitDx=0;exitDy=0;entryX=0.5;entryY=1;entryDx=0;entryDy=0;" edge="1" parent="1" source="bUmHoxnxDPU0LVhCzM5T-13" target="bUmHoxnxDPU0LVhCzM5T-46">
          <mxGeometry width="50" height="50" relative="1" as="geometry">
            <mxPoint x="1105" y="417" as="sourcePoint" />
            <mxPoint x="1155" y="367" as="targetPoint" />
          </mxGeometry>
        </mxCell>
        <mxCell id="rBA8UB2C427OJ4yDH4QD-8" value="" style="endArrow=classic;html=1;rounded=0;exitX=1;exitY=0.5;exitDx=0;exitDy=0;entryX=0;entryY=0.5;entryDx=0;entryDy=0;" edge="1" parent="1" source="bUmHoxnxDPU0LVhCzM5T-13" target="bUmHoxnxDPU0LVhCzM5T-45">
          <mxGeometry width="50" height="50" relative="1" as="geometry">
            <mxPoint x="1105" y="417" as="sourcePoint" />
            <mxPoint x="1155" y="367" as="targetPoint" />
          </mxGeometry>
        </mxCell>
        <mxCell id="rBA8UB2C427OJ4yDH4QD-9" value="" style="endArrow=classic;html=1;rounded=0;exitX=1;exitY=0.5;exitDx=0;exitDy=0;entryX=0;entryY=0.5;entryDx=0;entryDy=0;" edge="1" parent="1" source="bUmHoxnxDPU0LVhCzM5T-14" target="bUmHoxnxDPU0LVhCzM5T-47">
          <mxGeometry width="50" height="50" relative="1" as="geometry">
            <mxPoint x="1105" y="417" as="sourcePoint" />
            <mxPoint x="1155" y="367" as="targetPoint" />
          </mxGeometry>
        </mxCell>
        <mxCell id="rBA8UB2C427OJ4yDH4QD-10" value="" style="endArrow=classic;html=1;rounded=0;exitX=1;exitY=0.5;exitDx=0;exitDy=0;entryX=0;entryY=0.5;entryDx=0;entryDy=0;" edge="1" parent="1" source="bUmHoxnxDPU0LVhCzM5T-14" target="bUmHoxnxDPU0LVhCzM5T-48">
          <mxGeometry width="50" height="50" relative="1" as="geometry">
            <mxPoint x="1105" y="417" as="sourcePoint" />
            <mxPoint x="1155" y="367" as="targetPoint" />
          </mxGeometry>
        </mxCell>
        <mxCell id="rBA8UB2C427OJ4yDH4QD-11" value="" style="endArrow=classic;html=1;rounded=0;exitX=1;exitY=0.5;exitDx=0;exitDy=0;entryX=0;entryY=0.5;entryDx=0;entryDy=0;" edge="1" parent="1" source="bUmHoxnxDPU0LVhCzM5T-2" target="bUmHoxnxDPU0LVhCzM5T-12">
          <mxGeometry width="50" height="50" relative="1" as="geometry">
            <mxPoint x="1105" y="417" as="sourcePoint" />
            <mxPoint x="1155" y="367" as="targetPoint" />
          </mxGeometry>
        </mxCell>
        <mxCell id="rBA8UB2C427OJ4yDH4QD-12" value="" style="endArrow=classic;html=1;rounded=0;exitX=1;exitY=0.5;exitDx=0;exitDy=0;entryX=0;entryY=0.5;entryDx=0;entryDy=0;" edge="1" parent="1" source="bUmHoxnxDPU0LVhCzM5T-2" target="bUmHoxnxDPU0LVhCzM5T-13">
          <mxGeometry width="50" height="50" relative="1" as="geometry">
            <mxPoint x="1105" y="417" as="sourcePoint" />
            <mxPoint x="1155" y="367" as="targetPoint" />
          </mxGeometry>
        </mxCell>
        <mxCell id="rBA8UB2C427OJ4yDH4QD-13" value="" style="endArrow=classic;html=1;rounded=0;exitX=1;exitY=0.5;exitDx=0;exitDy=0;entryX=0;entryY=0.5;entryDx=0;entryDy=0;" edge="1" parent="1" source="bUmHoxnxDPU0LVhCzM5T-2" target="bUmHoxnxDPU0LVhCzM5T-14">
          <mxGeometry width="50" height="50" relative="1" as="geometry">
            <mxPoint x="1105" y="417" as="sourcePoint" />
            <mxPoint x="1155" y="367" as="targetPoint" />
          </mxGeometry>
        </mxCell>
        <mxCell id="rBA8UB2C427OJ4yDH4QD-14" value="" style="endArrow=classic;html=1;rounded=0;exitX=0.5;exitY=0;exitDx=0;exitDy=0;entryX=0.5;entryY=1;entryDx=0;entryDy=0;" edge="1" parent="1" source="bUmHoxnxDPU0LVhCzM5T-1" target="bUmHoxnxDPU0LVhCzM5T-2">
          <mxGeometry width="50" height="50" relative="1" as="geometry">
            <mxPoint x="1105" y="684" as="sourcePoint" />
            <mxPoint x="1155" y="634" as="targetPoint" />
          </mxGeometry>
        </mxCell>
        <mxCell id="rBA8UB2C427OJ4yDH4QD-15" value="" style="endArrow=classic;html=1;rounded=0;exitX=1;exitY=0.5;exitDx=0;exitDy=0;entryX=0;entryY=0.5;entryDx=0;entryDy=0;" edge="1" parent="1" source="bUmHoxnxDPU0LVhCzM5T-1" target="bUmHoxnxDPU0LVhCzM5T-10">
          <mxGeometry width="50" height="50" relative="1" as="geometry">
            <mxPoint x="1105" y="684" as="sourcePoint" />
            <mxPoint x="1155" y="634" as="targetPoint" />
          </mxGeometry>
        </mxCell>
        <mxCell id="rBA8UB2C427OJ4yDH4QD-16" value="" style="endArrow=classic;html=1;rounded=0;exitX=0.5;exitY=1;exitDx=0;exitDy=0;entryX=0.5;entryY=0;entryDx=0;entryDy=0;" edge="1" parent="1" source="bUmHoxnxDPU0LVhCzM5T-1" target="bUmHoxnxDPU0LVhCzM5T-6">
          <mxGeometry width="50" height="50" relative="1" as="geometry">
            <mxPoint x="1105" y="684" as="sourcePoint" />
            <mxPoint x="1155" y="634" as="targetPoint" />
          </mxGeometry>
        </mxCell>
        <mxCell id="rBA8UB2C427OJ4yDH4QD-17" value="" style="endArrow=classic;html=1;rounded=0;exitX=0.5;exitY=1;exitDx=0;exitDy=0;entryX=0.5;entryY=0;entryDx=0;entryDy=0;" edge="1" parent="1" source="bUmHoxnxDPU0LVhCzM5T-1" target="bUmHoxnxDPU0LVhCzM5T-4">
          <mxGeometry width="50" height="50" relative="1" as="geometry">
            <mxPoint x="1105" y="684" as="sourcePoint" />
            <mxPoint x="1155" y="634" as="targetPoint" />
          </mxGeometry>
        </mxCell>
        <mxCell id="rBA8UB2C427OJ4yDH4QD-18" value="" style="endArrow=classic;html=1;rounded=0;exitX=0;exitY=0.5;exitDx=0;exitDy=0;entryX=1;entryY=0.5;entryDx=0;entryDy=0;" edge="1" parent="1" source="bUmHoxnxDPU0LVhCzM5T-1" target="bUmHoxnxDPU0LVhCzM5T-5">
          <mxGeometry width="50" height="50" relative="1" as="geometry">
            <mxPoint x="1105" y="684" as="sourcePoint" />
            <mxPoint x="1155" y="634" as="targetPoint" />
          </mxGeometry>
        </mxCell>
        <mxCell id="rBA8UB2C427OJ4yDH4QD-19" value="" style="endArrow=classic;html=1;rounded=0;exitX=0.5;exitY=0;exitDx=0;exitDy=0;entryX=0.5;entryY=1;entryDx=0;entryDy=0;" edge="1" parent="1" source="bUmHoxnxDPU0LVhCzM5T-1" target="bUmHoxnxDPU0LVhCzM5T-3">
          <mxGeometry width="50" height="50" relative="1" as="geometry">
            <mxPoint x="1105" y="684" as="sourcePoint" />
            <mxPoint x="1155" y="634" as="targetPoint" />
          </mxGeometry>
        </mxCell>
        <mxCell id="rBA8UB2C427OJ4yDH4QD-20" value="" style="endArrow=classic;html=1;rounded=0;exitX=1;exitY=0.5;exitDx=0;exitDy=0;entryX=0;entryY=0.5;entryDx=0;entryDy=0;" edge="1" parent="1" source="bUmHoxnxDPU0LVhCzM5T-10" target="bUmHoxnxDPU0LVhCzM5T-26">
          <mxGeometry width="50" height="50" relative="1" as="geometry">
            <mxPoint x="1105" y="684" as="sourcePoint" />
            <mxPoint x="1155" y="634" as="targetPoint" />
          </mxGeometry>
        </mxCell>
        <mxCell id="rBA8UB2C427OJ4yDH4QD-21" value="" style="endArrow=classic;html=1;rounded=0;exitX=1;exitY=0.5;exitDx=0;exitDy=0;entryX=0.5;entryY=0;entryDx=0;entryDy=0;" edge="1" parent="1" source="bUmHoxnxDPU0LVhCzM5T-10" target="bUmHoxnxDPU0LVhCzM5T-25">
          <mxGeometry width="50" height="50" relative="1" as="geometry">
            <mxPoint x="1105" y="684" as="sourcePoint" />
            <mxPoint x="1155" y="634" as="targetPoint" />
          </mxGeometry>
        </mxCell>
        <mxCell id="rBA8UB2C427OJ4yDH4QD-22" value="" style="endArrow=classic;html=1;rounded=0;exitX=1;exitY=0.5;exitDx=0;exitDy=0;entryX=0;entryY=0.5;entryDx=0;entryDy=0;" edge="1" parent="1" source="bUmHoxnxDPU0LVhCzM5T-26" target="bUmHoxnxDPU0LVhCzM5T-29">
          <mxGeometry width="50" height="50" relative="1" as="geometry">
            <mxPoint x="1105" y="684" as="sourcePoint" />
            <mxPoint x="1155" y="634" as="targetPoint" />
          </mxGeometry>
        </mxCell>
        <mxCell id="rBA8UB2C427OJ4yDH4QD-23" value="" style="endArrow=classic;html=1;rounded=0;exitX=1;exitY=0.5;exitDx=0;exitDy=0;entryX=0;entryY=0.5;entryDx=0;entryDy=0;" edge="1" parent="1" source="bUmHoxnxDPU0LVhCzM5T-26" target="bUmHoxnxDPU0LVhCzM5T-23">
          <mxGeometry width="50" height="50" relative="1" as="geometry">
            <mxPoint x="1105" y="684" as="sourcePoint" />
            <mxPoint x="1155" y="634" as="targetPoint" />
          </mxGeometry>
        </mxCell>
        <mxCell id="rBA8UB2C427OJ4yDH4QD-24" value="" style="endArrow=classic;html=1;rounded=0;exitX=1;exitY=0.5;exitDx=0;exitDy=0;entryX=0;entryY=0.5;entryDx=0;entryDy=0;" edge="1" parent="1" source="bUmHoxnxDPU0LVhCzM5T-26" target="bUmHoxnxDPU0LVhCzM5T-27">
          <mxGeometry width="50" height="50" relative="1" as="geometry">
            <mxPoint x="1105" y="684" as="sourcePoint" />
            <mxPoint x="1155" y="634" as="targetPoint" />
          </mxGeometry>
        </mxCell>
        <mxCell id="rBA8UB2C427OJ4yDH4QD-25" value="" style="endArrow=classic;html=1;rounded=0;exitX=1;exitY=0.5;exitDx=0;exitDy=0;entryX=0.5;entryY=0;entryDx=0;entryDy=0;" edge="1" parent="1" source="bUmHoxnxDPU0LVhCzM5T-25" target="bUmHoxnxDPU0LVhCzM5T-22">
          <mxGeometry width="50" height="50" relative="1" as="geometry">
            <mxPoint x="1105" y="684" as="sourcePoint" />
            <mxPoint x="1155" y="634" as="targetPoint" />
          </mxGeometry>
        </mxCell>
        <mxCell id="rBA8UB2C427OJ4yDH4QD-26" value="" style="endArrow=classic;html=1;rounded=0;exitX=1;exitY=0.5;exitDx=0;exitDy=0;entryX=0.5;entryY=0;entryDx=0;entryDy=0;" edge="1" parent="1" source="bUmHoxnxDPU0LVhCzM5T-10" target="bUmHoxnxDPU0LVhCzM5T-24">
          <mxGeometry width="50" height="50" relative="1" as="geometry">
            <mxPoint x="1105" y="684" as="sourcePoint" />
            <mxPoint x="1155" y="634" as="targetPoint" />
          </mxGeometry>
        </mxCell>
        <mxCell id="rBA8UB2C427OJ4yDH4QD-27" value="" style="endArrow=classic;html=1;rounded=0;exitX=0.5;exitY=1;exitDx=0;exitDy=0;" edge="1" parent="1" source="bUmHoxnxDPU0LVhCzM5T-24" target="bUmHoxnxDPU0LVhCzM5T-21">
          <mxGeometry width="50" height="50" relative="1" as="geometry">
            <mxPoint x="1105" y="684" as="sourcePoint" />
            <mxPoint x="1155" y="634" as="targetPoint" />
          </mxGeometry>
        </mxCell>
        <mxCell id="rBA8UB2C427OJ4yDH4QD-28" value="" style="endArrow=classic;html=1;rounded=0;exitX=0.5;exitY=1;exitDx=0;exitDy=0;entryX=0;entryY=0.5;entryDx=0;entryDy=0;" edge="1" parent="1" source="bUmHoxnxDPU0LVhCzM5T-24" target="bUmHoxnxDPU0LVhCzM5T-28">
          <mxGeometry width="50" height="50" relative="1" as="geometry">
            <mxPoint x="1105" y="684" as="sourcePoint" />
            <mxPoint x="1155" y="634" as="targetPoint" />
          </mxGeometry>
        </mxCell>
        <mxCell id="rBA8UB2C427OJ4yDH4QD-29" value="" style="endArrow=classic;html=1;rounded=0;exitX=0.5;exitY=1;exitDx=0;exitDy=0;entryX=1;entryY=0.5;entryDx=0;entryDy=0;" edge="1" parent="1" source="bUmHoxnxDPU0LVhCzM5T-6" target="bUmHoxnxDPU0LVhCzM5T-16">
          <mxGeometry width="50" height="50" relative="1" as="geometry">
            <mxPoint x="1105" y="684" as="sourcePoint" />
            <mxPoint x="1155" y="634" as="targetPoint" />
          </mxGeometry>
        </mxCell>
        <mxCell id="rBA8UB2C427OJ4yDH4QD-30" value="" style="endArrow=classic;html=1;rounded=0;exitX=0.5;exitY=1;exitDx=0;exitDy=0;entryX=0.5;entryY=0;entryDx=0;entryDy=0;" edge="1" parent="1" source="bUmHoxnxDPU0LVhCzM5T-6" target="bUmHoxnxDPU0LVhCzM5T-17">
          <mxGeometry width="50" height="50" relative="1" as="geometry">
            <mxPoint x="1105" y="684" as="sourcePoint" />
            <mxPoint x="1155" y="634" as="targetPoint" />
          </mxGeometry>
        </mxCell>
        <mxCell id="rBA8UB2C427OJ4yDH4QD-31" value="" style="endArrow=classic;html=1;rounded=0;exitX=0.5;exitY=1;exitDx=0;exitDy=0;entryX=0.605;entryY=0.023;entryDx=0;entryDy=0;entryPerimeter=0;" edge="1" parent="1" source="bUmHoxnxDPU0LVhCzM5T-6" target="bUmHoxnxDPU0LVhCzM5T-18">
          <mxGeometry width="50" height="50" relative="1" as="geometry">
            <mxPoint x="1105" y="684" as="sourcePoint" />
            <mxPoint x="1155" y="634" as="targetPoint" />
          </mxGeometry>
        </mxCell>
        <mxCell id="rBA8UB2C427OJ4yDH4QD-32" value="" style="endArrow=classic;html=1;rounded=0;exitX=0.5;exitY=1;exitDx=0;exitDy=0;entryX=0.5;entryY=0;entryDx=0;entryDy=0;" edge="1" parent="1" source="bUmHoxnxDPU0LVhCzM5T-18" target="bUmHoxnxDPU0LVhCzM5T-55">
          <mxGeometry width="50" height="50" relative="1" as="geometry">
            <mxPoint x="1105" y="684" as="sourcePoint" />
            <mxPoint x="1155" y="634" as="targetPoint" />
          </mxGeometry>
        </mxCell>
        <mxCell id="rBA8UB2C427OJ4yDH4QD-33" value="" style="endArrow=classic;html=1;rounded=0;exitX=0.5;exitY=1;exitDx=0;exitDy=0;entryX=0.5;entryY=0;entryDx=0;entryDy=0;" edge="1" parent="1" source="bUmHoxnxDPU0LVhCzM5T-18" target="bUmHoxnxDPU0LVhCzM5T-54">
          <mxGeometry width="50" height="50" relative="1" as="geometry">
            <mxPoint x="1105" y="684" as="sourcePoint" />
            <mxPoint x="1155" y="634" as="targetPoint" />
          </mxGeometry>
        </mxCell>
        <mxCell id="rBA8UB2C427OJ4yDH4QD-34" value="" style="endArrow=classic;html=1;rounded=0;exitX=0.5;exitY=1;exitDx=0;exitDy=0;entryX=0.5;entryY=0;entryDx=0;entryDy=0;" edge="1" parent="1" source="bUmHoxnxDPU0LVhCzM5T-17" target="bUmHoxnxDPU0LVhCzM5T-53">
          <mxGeometry width="50" height="50" relative="1" as="geometry">
            <mxPoint x="1105" y="684" as="sourcePoint" />
            <mxPoint x="1155" y="634" as="targetPoint" />
          </mxGeometry>
        </mxCell>
        <mxCell id="rBA8UB2C427OJ4yDH4QD-35" value="" style="endArrow=classic;html=1;rounded=0;exitX=0.5;exitY=1;exitDx=0;exitDy=0;entryX=0.5;entryY=0;entryDx=0;entryDy=0;" edge="1" parent="1" source="bUmHoxnxDPU0LVhCzM5T-17" target="bUmHoxnxDPU0LVhCzM5T-52">
          <mxGeometry width="50" height="50" relative="1" as="geometry">
            <mxPoint x="1168" y="842" as="sourcePoint" />
            <mxPoint x="1155" y="634" as="targetPoint" />
          </mxGeometry>
        </mxCell>
        <mxCell id="rBA8UB2C427OJ4yDH4QD-36" value="" style="endArrow=classic;html=1;rounded=0;exitX=0.5;exitY=1;exitDx=0;exitDy=0;entryX=1;entryY=0.5;entryDx=0;entryDy=0;" edge="1" parent="1" source="bUmHoxnxDPU0LVhCzM5T-16" target="bUmHoxnxDPU0LVhCzM5T-49">
          <mxGeometry width="50" height="50" relative="1" as="geometry">
            <mxPoint x="1105" y="684" as="sourcePoint" />
            <mxPoint x="1155" y="634" as="targetPoint" />
          </mxGeometry>
        </mxCell>
        <mxCell id="rBA8UB2C427OJ4yDH4QD-37" value="" style="endArrow=classic;html=1;rounded=0;exitX=0.5;exitY=1;exitDx=0;exitDy=0;entryX=0.5;entryY=0;entryDx=0;entryDy=0;" edge="1" parent="1" source="bUmHoxnxDPU0LVhCzM5T-16" target="bUmHoxnxDPU0LVhCzM5T-50">
          <mxGeometry width="50" height="50" relative="1" as="geometry">
            <mxPoint x="1105" y="684" as="sourcePoint" />
            <mxPoint x="1155" y="634" as="targetPoint" />
          </mxGeometry>
        </mxCell>
        <mxCell id="rBA8UB2C427OJ4yDH4QD-38" value="" style="endArrow=classic;html=1;rounded=0;exitX=0.5;exitY=1;exitDx=0;exitDy=0;entryX=1;entryY=0.5;entryDx=0;entryDy=0;" edge="1" parent="1" source="bUmHoxnxDPU0LVhCzM5T-16" target="bUmHoxnxDPU0LVhCzM5T-51">
          <mxGeometry width="50" height="50" relative="1" as="geometry">
            <mxPoint x="1105" y="684" as="sourcePoint" />
            <mxPoint x="1155" y="634" as="targetPoint" />
          </mxGeometry>
        </mxCell>
        <mxCell id="rBA8UB2C427OJ4yDH4QD-39" value="" style="endArrow=classic;html=1;rounded=0;exitX=0;exitY=0.5;exitDx=0;exitDy=0;entryX=0.5;entryY=0;entryDx=0;entryDy=0;" edge="1" parent="1" source="bUmHoxnxDPU0LVhCzM5T-4" target="bUmHoxnxDPU0LVhCzM5T-60">
          <mxGeometry width="50" height="50" relative="1" as="geometry">
            <mxPoint x="1105" y="684" as="sourcePoint" />
            <mxPoint x="1155" y="634" as="targetPoint" />
          </mxGeometry>
        </mxCell>
        <mxCell id="rBA8UB2C427OJ4yDH4QD-40" value="" style="endArrow=classic;html=1;rounded=0;exitX=0;exitY=0.5;exitDx=0;exitDy=0;entryX=1;entryY=0.5;entryDx=0;entryDy=0;" edge="1" parent="1" source="bUmHoxnxDPU0LVhCzM5T-4" target="bUmHoxnxDPU0LVhCzM5T-59">
          <mxGeometry width="50" height="50" relative="1" as="geometry">
            <mxPoint x="1105" y="684" as="sourcePoint" />
            <mxPoint x="1155" y="634" as="targetPoint" />
          </mxGeometry>
        </mxCell>
        <mxCell id="rBA8UB2C427OJ4yDH4QD-41" value="" style="endArrow=classic;html=1;rounded=0;exitX=0;exitY=0.5;exitDx=0;exitDy=0;entryX=1;entryY=0.5;entryDx=0;entryDy=0;" edge="1" parent="1" source="bUmHoxnxDPU0LVhCzM5T-4" target="bUmHoxnxDPU0LVhCzM5T-58">
          <mxGeometry width="50" height="50" relative="1" as="geometry">
            <mxPoint x="1105" y="684" as="sourcePoint" />
            <mxPoint x="1155" y="634" as="targetPoint" />
          </mxGeometry>
        </mxCell>
        <mxCell id="rBA8UB2C427OJ4yDH4QD-42" value="" style="endArrow=classic;html=1;rounded=0;exitX=0;exitY=0.5;exitDx=0;exitDy=0;entryX=1;entryY=0.5;entryDx=0;entryDy=0;" edge="1" parent="1" source="bUmHoxnxDPU0LVhCzM5T-5" target="bUmHoxnxDPU0LVhCzM5T-56">
          <mxGeometry width="50" height="50" relative="1" as="geometry">
            <mxPoint x="1105" y="684" as="sourcePoint" />
            <mxPoint x="1155" y="634" as="targetPoint" />
          </mxGeometry>
        </mxCell>
        <mxCell id="rBA8UB2C427OJ4yDH4QD-43" value="" style="endArrow=classic;html=1;rounded=0;exitX=0;exitY=0.5;exitDx=0;exitDy=0;entryX=1;entryY=0.5;entryDx=0;entryDy=0;" edge="1" parent="1" source="bUmHoxnxDPU0LVhCzM5T-5" target="bUmHoxnxDPU0LVhCzM5T-57">
          <mxGeometry width="50" height="50" relative="1" as="geometry">
            <mxPoint x="1105" y="684" as="sourcePoint" />
            <mxPoint x="1155" y="634" as="targetPoint" />
          </mxGeometry>
        </mxCell>
        <mxCell id="rBA8UB2C427OJ4yDH4QD-44" value="" style="endArrow=classic;html=1;rounded=0;exitX=0;exitY=0.5;exitDx=0;exitDy=0;entryX=0.5;entryY=1;entryDx=0;entryDy=0;" edge="1" parent="1" source="bUmHoxnxDPU0LVhCzM5T-3" target="bUmHoxnxDPU0LVhCzM5T-11">
          <mxGeometry width="50" height="50" relative="1" as="geometry">
            <mxPoint x="1105" y="684" as="sourcePoint" />
            <mxPoint x="1155" y="634" as="targetPoint" />
          </mxGeometry>
        </mxCell>
        <mxCell id="rBA8UB2C427OJ4yDH4QD-45" value="" style="endArrow=classic;html=1;rounded=0;exitX=0;exitY=0.5;exitDx=0;exitDy=0;entryX=0.5;entryY=1;entryDx=0;entryDy=0;" edge="1" parent="1" source="bUmHoxnxDPU0LVhCzM5T-3" target="bUmHoxnxDPU0LVhCzM5T-9">
          <mxGeometry width="50" height="50" relative="1" as="geometry">
            <mxPoint x="1105" y="684" as="sourcePoint" />
            <mxPoint x="1155" y="634" as="targetPoint" />
          </mxGeometry>
        </mxCell>
        <mxCell id="rBA8UB2C427OJ4yDH4QD-46" value="" style="endArrow=classic;html=1;rounded=0;exitX=1;exitY=0.5;exitDx=0;exitDy=0;entryX=0;entryY=0.5;entryDx=0;entryDy=0;" edge="1" parent="1" source="bUmHoxnxDPU0LVhCzM5T-11" target="bUmHoxnxDPU0LVhCzM5T-35">
          <mxGeometry width="50" height="50" relative="1" as="geometry">
            <mxPoint x="1105" y="684" as="sourcePoint" />
            <mxPoint x="1155" y="634" as="targetPoint" />
          </mxGeometry>
        </mxCell>
        <mxCell id="rBA8UB2C427OJ4yDH4QD-47" value="" style="endArrow=classic;html=1;rounded=0;exitX=1;exitY=0.5;exitDx=0;exitDy=0;entryX=0;entryY=0.5;entryDx=0;entryDy=0;" edge="1" parent="1" source="bUmHoxnxDPU0LVhCzM5T-11" target="bUmHoxnxDPU0LVhCzM5T-34">
          <mxGeometry width="50" height="50" relative="1" as="geometry">
            <mxPoint x="1105" y="684" as="sourcePoint" />
            <mxPoint x="1155" y="634" as="targetPoint" />
          </mxGeometry>
        </mxCell>
        <mxCell id="rBA8UB2C427OJ4yDH4QD-48" value="" style="endArrow=classic;html=1;rounded=0;exitX=1;exitY=0.5;exitDx=0;exitDy=0;entryX=0.5;entryY=1;entryDx=0;entryDy=0;" edge="1" parent="1" source="bUmHoxnxDPU0LVhCzM5T-11" target="bUmHoxnxDPU0LVhCzM5T-36">
          <mxGeometry width="50" height="50" relative="1" as="geometry">
            <mxPoint x="1105" y="684" as="sourcePoint" />
            <mxPoint x="1155" y="634" as="targetPoint" />
          </mxGeometry>
        </mxCell>
        <mxCell id="rBA8UB2C427OJ4yDH4QD-50" value="" style="endArrow=classic;html=1;rounded=0;exitX=0;exitY=0.5;exitDx=0;exitDy=0;entryX=1;entryY=0.5;entryDx=0;entryDy=0;" edge="1" parent="1" source="bUmHoxnxDPU0LVhCzM5T-3" target="bUmHoxnxDPU0LVhCzM5T-8">
          <mxGeometry width="50" height="50" relative="1" as="geometry">
            <mxPoint x="1105" y="684" as="sourcePoint" />
            <mxPoint x="1155" y="634" as="targetPoint" />
          </mxGeometry>
        </mxCell>
        <mxCell id="rBA8UB2C427OJ4yDH4QD-51" value="" style="endArrow=classic;html=1;rounded=0;exitX=0.5;exitY=0;exitDx=0;exitDy=0;entryX=0.5;entryY=1;entryDx=0;entryDy=0;" edge="1" parent="1" source="bUmHoxnxDPU0LVhCzM5T-9" target="bUmHoxnxDPU0LVhCzM5T-38">
          <mxGeometry width="50" height="50" relative="1" as="geometry">
            <mxPoint x="1105" y="684" as="sourcePoint" />
            <mxPoint x="1155" y="634" as="targetPoint" />
          </mxGeometry>
        </mxCell>
        <mxCell id="rBA8UB2C427OJ4yDH4QD-52" value="" style="endArrow=classic;html=1;rounded=0;exitX=0.5;exitY=0;exitDx=0;exitDy=0;entryX=0.5;entryY=1;entryDx=0;entryDy=0;" edge="1" parent="1" source="bUmHoxnxDPU0LVhCzM5T-9" target="bUmHoxnxDPU0LVhCzM5T-37">
          <mxGeometry width="50" height="50" relative="1" as="geometry">
            <mxPoint x="1105" y="684" as="sourcePoint" />
            <mxPoint x="1155" y="634" as="targetPoint" />
          </mxGeometry>
        </mxCell>
        <mxCell id="rBA8UB2C427OJ4yDH4QD-53" value="" style="endArrow=classic;html=1;rounded=0;exitX=0;exitY=0.5;exitDx=0;exitDy=0;entryX=0.5;entryY=1;entryDx=0;entryDy=0;" edge="1" parent="1" source="bUmHoxnxDPU0LVhCzM5T-8" target="bUmHoxnxDPU0LVhCzM5T-32">
          <mxGeometry width="50" height="50" relative="1" as="geometry">
            <mxPoint x="1105" y="684" as="sourcePoint" />
            <mxPoint x="1155" y="634" as="targetPoint" />
          </mxGeometry>
        </mxCell>
        <mxCell id="rBA8UB2C427OJ4yDH4QD-54" value="" style="endArrow=classic;html=1;rounded=0;exitX=0;exitY=0.5;exitDx=0;exitDy=0;entryX=0.5;entryY=1;entryDx=0;entryDy=0;" edge="1" parent="1" source="bUmHoxnxDPU0LVhCzM5T-8" target="bUmHoxnxDPU0LVhCzM5T-31">
          <mxGeometry width="50" height="50" relative="1" as="geometry">
            <mxPoint x="1105" y="684" as="sourcePoint" />
            <mxPoint x="1155" y="634" as="targetPoint" />
          </mxGeometry>
        </mxCell>
        <mxCell id="rBA8UB2C427OJ4yDH4QD-55" value="" style="endArrow=classic;html=1;rounded=0;exitX=0;exitY=0.5;exitDx=0;exitDy=0;entryX=1;entryY=0.5;entryDx=0;entryDy=0;" edge="1" parent="1" source="bUmHoxnxDPU0LVhCzM5T-8" target="bUmHoxnxDPU0LVhCzM5T-30">
          <mxGeometry width="50" height="50" relative="1" as="geometry">
            <mxPoint x="1105" y="684" as="sourcePoint" />
            <mxPoint x="1155" y="634" as="targetPoint" />
          </mxGeometry>
        </mxCell>
        <mxCell id="rBA8UB2C427OJ4yDH4QD-57" value="" style="endArrow=classic;html=1;rounded=0;exitX=0;exitY=0.5;exitDx=0;exitDy=0;entryX=1;entryY=0.5;entryDx=0;entryDy=0;" edge="1" parent="1" source="bUmHoxnxDPU0LVhCzM5T-8" target="bUmHoxnxDPU0LVhCzM5T-33">
          <mxGeometry width="50" height="50" relative="1" as="geometry">
            <mxPoint x="1105" y="684" as="sourcePoint" />
            <mxPoint x="1155" y="634" as="targetPoint" />
          </mxGeometry>
        </mxCell>
      </root>
    </mxGraphModel>
  </diagram>
</mxfile>
